<?xml version="1.0" standalone="no"?>
<!DOCTYPE svg PUBLIC "-//W3C//DTD SVG 20010904//EN"
 "http://www.w3.org/TR/2001/REC-SVG-20010904/DTD/svg10.dtd">
<svg version="1.0" xmlns="http://www.w3.org/2000/svg"
 width="1242.000000pt" height="1300.000000pt" viewBox="0 0 1242.000000 1300.000000"
 preserveAspectRatio="xMidYMid meet">
<metadata>
Created by potrace 1.15, written by Peter Selinger 2001-2017
</metadata>
<g transform="translate(0.000000,1300.000000) scale(0.100000,-0.100000)"
fill="#000000" stroke="none">
<path d="M6185 12977 c-27 -13 -65 -38 -84 -56 -33 -31 -37 -32 -75 -22 -86
23 -397 35 -563 23 -241 -18 -560 -92 -758 -177 -468 -200 -807 -506 -1118
-1010 -92 -149 -167 -308 -250 -532 -52 -136 -88 -336 -93 -516 -4 -131 -2
-164 21 -280 36 -182 82 -313 180 -512 94 -191 150 -284 204 -335 53 -50 89
-190 50 -190 -5 0 -9 -8 -9 -18 0 -10 -4 -22 -9 -27 -5 -6 -22 -48 -37 -95
-25 -74 -29 -100 -28 -200 0 -88 5 -133 22 -193 42 -148 123 -280 243 -398
160 -158 366 -228 488 -166 19 9 36 17 38 17 4 0 -45 -68 -57 -80 -34 -34
-101 -134 -96 -145 7 -20 31 -19 61 1 31 20 31 19 0 -48 -24 -52 -37 -107 -49
-206 -3 -26 1 -61 10 -90 27 -77 45 -77 95 3 28 45 32 47 42 29 16 -29 21
-179 8 -264 -7 -41 -30 -149 -52 -239 -46 -185 -58 -309 -40 -401 12 -60 12
-61 -16 -98 -70 -90 -97 -168 -87 -248 l6 -51 -69 -40 c-37 -23 -142 -96 -233
-162 -273 -201 -374 -262 -475 -290 -75 -21 -107 -15 -148 27 -20 21 -37 43
-37 50 0 7 -4 12 -8 12 -5 0 -29 16 -53 35 -63 49 -152 70 -224 54 l-54 -12
-73 58 c-190 153 -326 345 -433 609 -19 49 -40 95 -45 101 -5 7 -8 14 -5 17 2
2 -6 40 -20 84 -55 178 -94 448 -95 644 l0 75 52 29 c85 48 212 180 249 260
119 254 46 540 -164 640 -48 22 -69 26 -151 26 -52 0 -101 3 -110 6 -13 5 -16
23 -16 88 0 148 -52 206 -191 214 l-67 4 -27 65 c-16 36 -34 67 -42 70 -7 3
-13 10 -13 17 0 19 -90 100 -155 139 -33 20 -98 51 -145 68 -78 30 -96 32
-205 33 -112 1 -124 -1 -182 -28 -34 -15 -70 -37 -79 -47 -21 -24 -34 -24 -34
-1 0 29 -44 101 -90 148 -30 30 -59 49 -94 59 -62 19 -70 19 -133 0 -138 -41
-263 -214 -309 -427 -19 -90 -19 -245 0 -315 15 -57 14 -60 -24 -38 -37 21
-124 19 -169 -5 -121 -61 -185 -217 -151 -369 44 -198 214 -424 435 -576 87
-60 260 -143 385 -185 85 -29 102 -39 160 -94 159 -152 395 -233 645 -223 66
3 129 7 139 9 16 2 25 -11 49 -72 40 -105 91 -255 211 -620 104 -316 180 -513
243 -625 187 -333 388 -526 628 -605 51 -17 79 -33 105 -61 19 -21 61 -50 94
-65 52 -23 67 -26 140 -22 116 6 196 50 236 129 26 49 187 185 302 254 36 22
367 249 438 300 78 57 259 165 276 165 5 0 17 -13 27 -28 9 -16 29 -42 45 -58
41 -42 148 -187 174 -237 24 -47 27 -103 14 -247 -7 -79 -6 -88 17 -133 21
-41 24 -59 21 -116 -2 -37 -13 -97 -24 -132 -12 -35 -32 -116 -46 -179 -21
-100 -24 -137 -23 -282 l2 -167 -36 -40 c-34 -38 -41 -41 -87 -41 -51 0 -61
-6 -102 -63 -12 -16 -16 -16 -68 4 -79 31 -206 31 -274 1 -44 -20 -51 -21 -65
-7 -68 65 -203 136 -451 235 -364 147 -530 198 -779 239 -188 32 -319 29 -543
-14 -100 -19 -239 -39 -308 -45 -177 -14 -221 -30 -296 -105 -84 -83 -149
-213 -149 -300 1 -84 47 -175 135 -263 45 -45 74 -85 89 -122 38 -91 129 -268
167 -326 39 -59 191 -234 222 -256 11 -7 47 -38 82 -68 87 -76 236 -186 287
-211 24 -11 45 -25 48 -30 19 -29 447 -247 685 -347 358 -150 653 -228 1250
-327 85 -14 180 -30 210 -35 30 -6 121 -17 202 -25 82 -8 177 -20 213 -26 65
-11 66 -12 90 -58 13 -26 44 -70 68 -97 44 -49 45 -49 106 -49 53 0 61 -2 61
-19 0 -35 40 -84 88 -108 44 -22 57 -23 220 -21 l173 3 147 -75 c188 -96 273
-125 382 -132 68 -4 96 -1 143 14 l58 20 42 -32 c60 -46 141 -85 176 -85 53 0
107 28 139 73 16 23 31 51 33 61 3 16 14 19 71 20 60 1 70 4 98 31 57 54 75
118 49 168 -9 17 -9 22 2 25 8 3 31 23 51 44 46 50 64 117 48 178 -6 23 -10
43 -8 45 2 1 32 8 68 14 369 69 640 178 1075 431 50 29 117 68 150 87 97 56
304 197 393 268 153 123 392 380 392 421 0 8 4 14 10 14 13 0 85 132 119 220
29 76 58 237 47 266 -3 8 2 32 10 52 10 21 17 65 17 102 1 53 -5 77 -30 130
-44 94 -128 181 -215 225 -65 32 -78 35 -157 35 -62 0 -105 -6 -149 -21 -57
-19 -65 -20 -86 -6 -13 9 -50 23 -82 33 -97 28 -230 13 -459 -50 -49 -14 -102
-26 -117 -26 -16 0 -28 -4 -28 -8 0 -11 -62 -38 -120 -52 -81 -20 -213 -72
-323 -126 -59 -30 -113 -54 -118 -54 -6 0 -23 -9 -37 -21 -15 -11 -74 -52
-132 -90 -136 -89 -136 -89 -265 -184 -212 -157 -227 -167 -231 -162 -10 9 17
149 51 264 19 67 35 138 35 157 0 34 -2 36 -52 51 -59 17 -121 20 -148 5 -17
-9 -23 -3 -46 45 -15 33 -49 79 -82 110 l-57 55 -6 122 c-3 68 -15 170 -27
228 -34 171 -71 390 -78 467 l-6 71 31 16 c75 39 78 100 14 238 -50 105 -48
126 22 254 27 49 56 103 64 121 9 18 19 32 24 33 9 0 189 -92 239 -122 53 -33
185 -125 248 -173 214 -162 481 -323 661 -398 38 -16 80 -43 99 -64 87 -92
225 -109 349 -43 56 30 161 128 161 151 0 5 24 21 53 35 257 130 586 489 829
904 100 171 135 234 258 475 116 227 189 365 200 380 22 29 196 367 227 440
33 80 110 209 143 240 25 24 28 25 86 14 204 -38 613 78 800 227 32 26 73 64
89 85 39 49 86 75 159 88 154 28 498 176 624 268 157 114 245 257 246 398 0
69 -16 107 -68 155 l-34 32 48 72 c105 154 153 295 154 451 1 109 -7 133 -65
199 -39 45 -113 71 -182 62 -153 -18 -280 -155 -368 -398 -43 -120 -71 -162
-188 -278 -84 -83 -122 -113 -181 -142 -78 -38 -166 -65 -177 -54 -10 9 21 69
66 129 88 117 142 241 156 357 20 165 -81 367 -225 450 -265 154 -799 40
-1044 -223 -43 -47 -78 -112 -96 -176 -10 -38 -14 -42 -33 -36 -12 3 -50 9
-84 12 -113 10 -206 -34 -263 -124 -54 -85 -32 -146 80 -221 107 -72 139 -102
148 -135 8 -30 6 -33 -23 -45 -35 -14 -49 -35 -65 -99 -7 -30 -19 -47 -43 -62
-47 -29 -115 -115 -145 -184 -66 -149 -47 -281 56 -398 l40 -45 -19 -90 c-68
-314 -106 -430 -204 -629 -127 -260 -370 -604 -630 -894 -101 -113 -95 -108
-385 -296 -245 -159 -370 -283 -410 -407 -6 -21 -13 -38 -15 -38 -2 0 -45 22
-97 49 -51 26 -150 78 -219 113 -176 92 -395 232 -516 332 -10 8 -29 24 -43
35 -21 17 -23 23 -13 39 31 52 23 190 -17 277 -34 74 -122 188 -174 226 -26
18 -46 40 -46 48 0 9 -12 61 -26 116 -50 195 -53 214 -41 292 6 40 14 70 19
67 4 -3 18 -27 29 -55 30 -69 58 -68 91 4 44 93 52 129 53 239 0 60 1 108 2
108 1 0 28 -15 59 -34 88 -53 104 -35 74 82 -11 42 -29 101 -40 130 -11 29
-20 56 -20 61 0 4 31 6 68 3 48 -3 87 1 128 13 275 79 494 363 535 694 17 134
-1 259 -55 377 l-38 81 31 61 c73 144 117 304 148 537 27 206 24 779 -5 1020
-42 340 -79 495 -187 795 -68 188 -257 502 -392 650 -222 246 -382 355 -657
451 -107 37 -109 39 -136 86 -89 156 -309 245 -445 180z m-506 -2427 c123 -26
262 -74 341 -118 92 -51 190 -123 183 -135 -3 -6 -1 -7 5 -3 9 6 59 -33 139
-110 11 -11 63 -59 116 -108 53 -49 93 -94 90 -99 -3 -6 -1 -7 4 -4 15 10 285
-285 341 -371 9 -15 25 -36 35 -47 10 -11 36 -47 58 -80 l40 -60 -4 -90 c-5
-92 -21 -207 -56 -397 -44 -238 -102 -371 -204 -471 -30 -30 -44 -37 -60 -32
-27 8 -419 28 -585 29 -105 1 -121 3 -116 16 4 8 15 42 26 75 10 33 23 74 30
90 41 111 31 204 -28 263 -33 33 -37 34 -93 30 -64 -4 -125 -38 -156 -84 -25
-39 -7 -48 31 -15 114 101 245 20 194 -121 -8 -20 -18 -34 -23 -31 -6 3 -7 1
-3 -5 8 -13 -32 -112 -46 -112 -5 0 -6 -5 -3 -10 16 -25 -144 -190 -214 -222
-82 -38 -183 3 -290 118 -75 82 -106 150 -116 254 -12 130 52 168 144 85 35
-32 61 -44 61 -29 0 15 -64 85 -94 103 -42 26 -107 28 -129 3 -70 -78 -65
-218 13 -372 11 -22 20 -41 20 -44 0 -2 -17 0 -37 5 -36 9 -444 3 -509 -7 -29
-4 -34 0 -71 58 -53 83 -62 101 -79 157 -17 59 -44 198 -44 230 0 21 4 18 31
-22 19 -30 38 -47 51 -47 19 0 19 4 11 93 -9 108 -7 208 8 292 14 82 39 156
50 150 5 -4 6 1 3 10 -9 21 24 68 42 61 8 -3 13 -2 9 3 -6 11 69 18 330 31
105 6 204 14 222 19 25 7 40 5 68 -9 51 -26 67 -41 61 -57 -3 -8 -1 -11 4 -8
5 3 13 -12 16 -35 9 -57 24 -60 24 -4 0 52 -25 101 -68 133 -26 19 -26 20 -9
39 24 27 31 83 22 177 -8 89 -18 98 -75 66 -32 -18 -66 -24 -187 -32 -228 -15
-324 -27 -399 -50 -126 -38 -198 -92 -258 -192 l-34 -57 -7 69 c-4 39 -4 89 0
113 8 49 31 98 45 98 6 0 10 5 10 10 0 6 10 21 23 34 12 13 43 45 68 72 102
109 226 210 469 382 110 77 291 213 373 279 44 35 82 63 86 63 4 0 49 -9 100
-20z m5403 -584 c118 -29 218 -106 273 -211 29 -56 30 -63 30 -189 0 -117 -3
-137 -24 -186 -27 -61 -108 -193 -122 -198 -5 -2 -9 -12 -9 -23 0 -10 -4 -19
-9 -19 -4 0 -19 -23 -32 -50 -21 -45 -25 -49 -36 -33 -7 9 -13 14 -13 10 0 -4
-19 2 -42 14 -49 25 -134 50 -142 41 -8 -7 14 -32 28 -32 16 0 114 -67 175
-119 136 -116 231 -312 231 -474 0 -41 4 -57 13 -57 18 0 37 65 37 126 l0 49
60 12 c32 6 73 18 91 27 40 20 38 20 32 -4 -10 -40 26 -20 69 38 56 73 138
199 138 210 0 5 29 41 65 80 78 84 127 107 207 100 45 -5 56 -10 84 -44 41
-49 49 -91 30 -158 -24 -82 -168 -258 -197 -241 -8 5 -10 4 -5 -3 13 -22 -210
-146 -369 -205 -72 -27 -262 -87 -275 -87 -4 0 -7 7 -6 16 2 24 -23 29 -31 7
-38 -105 -217 -233 -447 -318 -213 -79 -353 -99 -503 -72 -45 8 -104 37 -97
48 3 5 -1 6 -8 4 -8 -3 -31 13 -53 35 -49 50 -71 53 -60 8 5 -18 8 -46 8 -61
0 -17 3 -24 7 -17 5 9 9 9 14 1 4 -6 4 -16 0 -23 -5 -7 -3 -8 5 -3 8 4 21 -1
32 -14 11 -12 24 -21 29 -21 5 0 -12 -22 -38 -48 -51 -53 -54 -57 -183 -312
-49 -96 -104 -200 -121 -230 -44 -79 -73 -132 -130 -240 -28 -52 -61 -114 -75
-137 -14 -24 -21 -43 -16 -43 4 0 3 -4 -4 -8 -6 -4 -40 -61 -74 -127 -34 -66
-78 -149 -98 -185 -21 -36 -40 -72 -43 -81 -3 -8 -50 -85 -103 -169 -89 -143
-122 -188 -260 -370 -59 -76 -300 -321 -365 -371 -25 -18 -54 -42 -65 -52 -10
-9 -25 -15 -33 -12 -7 2 -11 1 -8 -4 5 -8 -75 -81 -89 -81 -3 0 -26 -14 -51
-30 -48 -34 -58 -60 -21 -60 18 0 14 -6 -23 -30 -71 -47 -122 -63 -187 -58
-59 4 -158 45 -197 80 -11 10 -24 18 -28 18 -5 0 -6 6 -2 13 4 6 4 9 -1 5 -4
-4 -20 1 -34 11 -14 10 -48 30 -76 45 -132 69 -255 148 -248 159 3 6 1 7 -5 3
-9 -6 -154 90 -342 227 -36 26 -78 56 -94 65 -16 9 -41 27 -56 39 -31 25 -199
113 -216 113 -21 0 -64 27 -56 35 4 5 2 5 -5 1 -14 -8 -93 22 -93 36 0 5 -3 7
-8 5 -4 -3 -21 2 -39 11 l-32 17 30 33 c17 19 33 31 36 28 4 -3 12 2 19 12 11
17 107 69 167 91 31 12 36 31 8 31 -35 0 -145 -32 -193 -56 -27 -14 -48 -22
-48 -20 0 2 -14 -9 -32 -25 -17 -17 -37 -28 -44 -25 -8 3 -13 2 -12 -2 1 -4
-10 -26 -25 -49 -48 -75 -26 -122 34 -74 24 19 25 19 53 -4 l29 -23 -23 -44
c-102 -197 -95 -175 -95 -276 0 -77 3 -96 17 -106 21 -16 43 -104 35 -138 -8
-31 -60 -58 -111 -58 -20 0 -72 8 -114 17 -48 10 -124 17 -200 17 l-124 1 6
50 c3 28 6 63 6 79 l0 29 24 -22 c15 -14 33 -21 48 -19 23 3 23 5 29 168 4 91
12 201 18 245 6 44 11 108 12 143 1 34 4 60 6 58 2 -2 21 -40 43 -85 40 -82
63 -100 87 -68 6 6 14 80 18 162 9 179 11 205 18 225 14 42 27 100 27 118 0
12 5 44 11 73 l11 51 38 -37 c26 -26 45 -36 61 -33 28 4 31 19 49 217 6 69 15
130 21 138 7 7 28 13 48 13 l37 0 15 -67 c22 -108 17 -218 -14 -279 -29 -58
-76 -103 -135 -130 -51 -23 -55 -44 -9 -44 45 0 163 62 215 113 65 63 91 108
127 212 l33 95 49 -48 c27 -26 69 -81 94 -122 41 -70 44 -79 44 -146 0 -40 -3
-75 -7 -79 -10 -10 -31 5 -96 68 -62 59 -72 66 -72 45 1 -12 42 -59 148 -172
54 -57 209 -194 278 -245 32 -25 75 -56 94 -71 105 -78 365 -221 503 -276 43
-17 47 -21 41 -44 -16 -61 -22 -106 -14 -114 15 -15 30 4 30 37 0 41 19 75 21
37 1 -35 23 -93 37 -98 8 -2 12 11 12 41 0 133 45 231 155 342 78 77 190 159
178 129 -9 -24 30 -16 83 17 109 69 205 161 404 389 36 41 72 81 80 90 8 8 33
38 55 65 22 27 74 91 115 141 103 126 203 264 203 280 0 7 4 11 8 9 8 -6 138
203 201 325 57 108 121 282 143 385 10 44 20 138 24 208 l6 129 40 -29 c61
-43 144 -85 155 -78 21 13 8 32 -58 83 -84 65 -145 130 -136 144 4 6 3 8 -3 5
-15 -9 -53 65 -69 131 -15 65 -4 154 28 215 11 23 48 72 82 110 63 70 75 91
82 142 3 17 18 41 35 56 38 33 48 84 25 131 -16 31 -16 34 2 49 30 24 52 74
52 120 0 33 -6 47 -34 75 -29 29 -41 34 -81 34 -26 0 -72 -7 -102 -16 -30 -9
-57 -13 -60 -11 -12 12 39 65 87 91 42 23 64 28 115 28 85 -1 121 -20 146 -80
24 -56 61 -97 111 -123 37 -19 38 -22 54 -112 8 -45 -4 -130 -17 -122 -5 3 -6
-1 -3 -9 5 -13 -63 -127 -84 -140 -12 -7 -14 -66 -1 -66 6 0 29 16 52 35 22
19 45 35 49 35 5 0 7 4 3 9 -8 14 13 24 38 17 31 -8 69 -43 103 -96 28 -43 29
-50 29 -155 -1 -98 -4 -116 -28 -166 -14 -31 -47 -79 -72 -106 -25 -28 -45
-54 -45 -57 0 -19 36 1 83 47 142 139 169 392 56 521 l-38 43 55 42 c96 72
168 99 347 132 45 8 57 14 55 27 -2 9 13 31 33 49 53 48 93 143 85 201 -3 25
-13 57 -22 70 l-16 25 33 -6 c19 -3 44 -9 57 -13 18 -5 22 -2 22 14 0 16 -13
25 -55 41 -66 25 -103 26 -152 6 -19 -8 -43 -15 -52 -16 -9 0 -45 -16 -81 -34
-242 -127 -290 -148 -354 -148 -74 -1 -112 18 -150 76 -18 29 -26 54 -26 85
l0 44 55 -54 c75 -71 134 -99 181 -85 19 6 46 21 59 33 13 12 26 20 29 18 3
-2 4 -1 2 2 -3 3 6 26 20 51 13 25 24 55 24 67 0 72 -52 151 -122 187 -21 11
-37 23 -34 27 2 4 22 16 43 27 21 11 41 24 45 30 4 5 8 7 8 2 0 -4 13 -1 29 7
45 24 181 69 246 82 82 16 238 16 307 0z m1118 -135 c0 -5 9 -7 20 -4 27 7 79
-33 96 -73 20 -47 17 -95 -10 -204 -37 -144 -90 -251 -166 -336 -31 -34 -41
-39 -85 -42 -87 -6 -206 -87 -268 -185 -10 -16 -39 -37 -65 -48 -150 -64 -261
-115 -291 -135 l-34 -23 -12 22 c-25 49 -88 136 -101 141 -22 8 -16 21 10 24
78 6 260 108 339 190 25 26 45 38 57 35 13 -4 29 12 62 59 47 68 50 75 132
250 86 185 153 272 241 314 53 25 75 30 75 15z m-1787 -97 c51 -26 76 -63 77
-113 0 -77 -59 -142 -114 -125 -11 4 -49 30 -83 59 -34 29 -68 55 -74 57 -16
5 5 41 56 96 44 47 81 54 138 26z m-5000 -116 c-10 -17 -31 -40 -46 -52 -26
-19 -45 -21 -260 -26 -128 -3 -238 -9 -246 -14 -8 -5 -16 -3 -22 5 -21 35
-122 -85 -167 -200 -29 -73 -50 -192 -55 -310 l-2 -53 -30 73 c-27 68 -29 84
-29 199 -1 121 1 127 31 185 85 163 203 225 468 246 237 18 314 27 342 41 28
13 28 13 31 -25 2 -24 -4 -50 -15 -69z m-957 -181 c0 -149 9 -214 33 -272 31
-72 55 -178 67 -300 7 -77 20 -167 29 -200 16 -61 62 -163 90 -201 15 -21 14
-21 -62 -36 -43 -9 -79 -15 -80 -14 -1 0 3 24 9 51 13 66 3 238 -24 400 -11
72 -22 150 -23 175 -2 58 -46 188 -90 265 -39 71 -38 88 17 217 18 43 33 78
33 78 0 0 0 -73 1 -163z m6460 36 c19 -29 21 -94 4 -139 -13 -32 -87 -112
-121 -130 -16 -8 -39 -14 -51 -14 -82 0 -285 -88 -341 -146 -30 -33 -60 -43
-71 -26 -3 5 1 26 9 48 16 44 19 121 6 175 l-8 37 66 5 c72 5 148 35 239 94
108 69 207 123 228 123 13 0 29 -12 40 -27z m-6756 -26 c111 -52 256 -222 279
-327 5 -25 19 -133 31 -240 22 -192 24 -409 5 -453 -4 -10 -37 -32 -74 -49
-98 -47 -154 -45 -262 9 -102 52 -123 67 -219 163 -89 90 -141 175 -177 290
-35 110 -39 283 -9 370 54 157 133 241 251 270 47 11 104 0 175 -33z m-3400
-27 c46 -13 80 -45 116 -106 26 -44 29 -58 29 -134 0 -99 -7 -116 -112 -260
-58 -79 -69 -102 -72 -139 -1 -25 -4 -47 -5 -50 -2 -3 0 -32 5 -64 10 -63 36
-122 66 -148 10 -9 40 -39 67 -67 26 -28 64 -59 85 -69 47 -24 49 -46 7 -86
-42 -39 -89 -132 -106 -209 -7 -32 -17 -58 -21 -58 -5 0 -5 -8 -2 -17 6 -14 0
-13 -30 6 -20 12 -51 29 -69 38 -99 49 -172 131 -162 180 8 42 -23 226 -48
286 -12 28 -32 66 -45 83 -30 41 -43 119 -43 266 0 130 17 228 54 312 60 134
162 238 241 245 6 1 26 -4 45 -9z m9219 -86 c12 -15 21 -31 21 -36 0 -25 -33
-77 -52 -82 -35 -9 -183 92 -164 112 9 9 104 30 138 31 28 1 41 -5 57 -25z
m-2413 -39 c141 -42 228 -177 254 -396 12 -91 11 -115 -4 -196 -27 -145 -109
-295 -234 -422 -81 -83 -231 -163 -307 -165 -35 -1 -46 5 -85 46 -43 44 -46
51 -58 130 -15 102 -15 237 -2 361 5 51 14 146 19 212 8 101 15 130 39 180 67
136 150 218 255 250 55 18 64 18 123 0z m-6139 -20 c32 -8 82 -27 112 -42 58
-28 58 -28 -7 -64 -16 -9 -48 -40 -70 -68 -51 -64 -62 -121 -38 -185 14 -37
24 -47 65 -65 42 -18 54 -19 82 -9 19 6 38 15 44 20 59 48 101 76 109 71 5 -3
6 -1 3 4 -4 6 5 19 20 28 25 17 26 17 20 -4 -3 -11 -1 -19 4 -15 5 3 9 -15 9
-40 0 -58 -33 -91 -107 -107 -75 -17 -144 -2 -338 76 -92 36 -213 53 -222 30
-1 -6 17 -21 42 -35 35 -19 41 -26 29 -33 -9 -5 -28 -4 -46 2 -35 12 -43 9
-35 -13 4 -9 24 -18 46 -22 35 -6 39 -9 45 -43 3 -20 4 -38 3 -41 -1 -3 6 -18
15 -32 10 -15 16 -33 15 -40 -2 -7 -2 -10 1 -5 2 4 17 -11 34 -34 16 -22 28
-42 26 -44 -2 -1 -16 -7 -32 -12 -17 -5 -32 -15 -34 -21 -3 -9 19 -12 75 -12
151 0 269 -56 432 -203 l39 -35 -15 -58 c-35 -135 40 -313 165 -393 56 -36 62
-37 62 -15 0 9 -21 35 -48 59 -43 38 -79 97 -111 178 -6 15 -11 55 -11 88 0
62 11 90 58 141 30 32 62 26 109 -21 28 -28 38 -31 91 -31 32 0 62 3 66 7 3 4
-22 16 -56 27 l-63 19 40 8 c58 11 125 39 125 54 0 9 -32 14 -112 18 -128 6
-195 27 -267 83 -62 47 -92 96 -101 162 -10 75 -4 89 39 103 67 21 130 104
131 170 0 45 56 52 128 18 54 -26 64 -50 62 -149 -2 -114 -2 -116 25 -148 23
-27 71 -50 82 -38 3 2 0 13 -5 23 -10 18 -7 18 62 12 91 -9 155 -39 208 -98
118 -133 129 -312 30 -511 -63 -127 -157 -213 -281 -256 -36 -13 -64 -27 -61
-31 3 -4 26 -8 52 -8 l47 1 0 -161 c1 -156 20 -369 42 -450 6 -22 14 -60 19
-85 40 -219 176 -514 315 -686 65 -81 208 -214 230 -214 4 0 19 -8 33 -19 52
-36 171 -93 182 -86 8 5 6 14 -4 31 -23 34 -21 36 32 28 53 -7 86 -22 152 -67
70 -47 158 -173 184 -262 13 -43 39 -54 44 -20 3 20 -51 161 -69 180 -16 16
-10 26 14 21 42 -7 131 15 212 54 67 32 316 191 415 265 15 11 70 48 121 82
130 86 145 98 180 150 36 52 28 78 -15 49 -25 -16 -26 -16 -26 6 0 40 90 205
102 188 29 -40 89 -110 108 -127 42 -37 160 -93 196 -93 45 0 43 20 -4 42 -95
44 -156 131 -165 237 -6 65 -3 69 97 121 85 45 82 47 92 -65 6 -68 9 -76 30
-81 35 -9 51 1 59 36 4 17 13 42 20 56 12 24 13 22 20 -33 11 -94 29 -161 80
-293 55 -147 75 -229 75 -325 0 -103 9 -143 32 -151 11 -3 24 -2 30 4 5 5 26
69 47 142 l37 132 18 -78 c16 -75 29 -225 42 -517 5 -111 8 -129 25 -137 14
-8 23 -6 38 9 19 19 20 19 23 -59 3 -85 0 -89 -58 -90 -11 0 -39 -9 -62 -20
-65 -32 -205 -64 -245 -56 -55 10 -67 47 -67 204 0 109 -3 136 -20 173 -24 52
-38 74 -65 104 -11 12 -42 48 -70 81 -27 32 -72 83 -99 111 -33 36 -44 54 -35
57 8 2 21 6 30 9 19 6 72 -36 61 -48 -4 -5 -2 -6 3 -2 6 3 26 -10 45 -29 38
-39 56 -33 45 15 -11 50 -99 134 -168 159 -62 24 -155 29 -188 11 -31 -16 -12
-29 44 -29 72 0 90 -14 41 -30 -79 -26 -263 -139 -322 -198 -13 -13 -43 -35
-65 -50 -23 -15 -46 -33 -52 -39 -5 -7 -49 -39 -96 -70 -199 -134 -229 -155
-249 -180 -13 -17 -26 -24 -40 -20 -10 3 -18 2 -17 -3 3 -11 -109 -100 -126
-100 -8 0 -27 -17 -43 -37 -55 -74 -80 -96 -141 -124 -69 -32 -169 -40 -217
-17 -25 11 -25 12 -6 25 10 7 17 20 14 28 -8 19 -94 66 -174 95 -137 49 -332
205 -443 355 -32 44 -68 86 -78 93 -10 7 -19 20 -19 28 0 8 -5 14 -12 14 -6 0
-8 3 -5 6 3 4 1 16 -5 28 -7 11 -13 26 -14 31 -1 6 -20 48 -42 95 -59 125 -73
161 -65 173 3 6 1 7 -5 3 -8 -4 -12 0 -12 11 0 11 -4 23 -9 29 -16 17 -62 164
-55 176 4 7 3 8 -4 4 -7 -4 -17 11 -26 41 -8 26 -38 113 -66 193 -46 133 -68
192 -115 320 -18 49 -100 217 -115 234 -6 8 8 20 44 39 54 29 166 121 166 138
0 12 -37 12 -45 0 -3 -5 -19 -12 -35 -16 -17 -4 -30 -10 -30 -14 0 -8 -56 -32
-90 -38 -14 -2 -38 -9 -55 -15 -42 -15 -380 -24 -371 -9 5 7 1 9 -8 5 -57 -22
-413 130 -391 167 3 5 0 6 -8 4 -14 -6 -127 105 -127 124 0 6 -7 11 -15 11
-18 0 -20 -21 -3 -38 28 -28 -5 -16 -127 45 -181 90 -293 162 -277 177 3 4 -1
4 -10 1 -19 -7 -198 165 -245 235 -86 129 -133 255 -133 358 0 84 67 196 123
204 71 11 178 -64 220 -155 31 -65 44 -133 53 -270 5 -87 10 -110 23 -115 9
-3 50 -33 91 -67 76 -62 187 -135 206 -135 5 0 22 -38 38 -85 31 -97 51 -113
39 -32 -4 28 -8 90 -8 137 1 132 48 235 189 412 37 48 74 89 82 92 16 6 19 36
3 36 -5 0 -8 3 -6 8 3 4 -9 7 -26 8 -18 1 -27 -1 -21 -3 17 -6 -6 -51 -29 -57
-22 -5 -79 52 -72 72 3 7 1 10 -4 7 -5 -3 -24 12 -41 33 -72 85 -126 308 -84
343 50 41 112 171 124 260 12 84 19 92 98 115 124 36 224 39 339 9z m5707 -67
c30 -77 31 -85 11 -125 -8 -16 -24 -67 -35 -112 -39 -154 -52 -277 -53 -496 0
-179 3 -224 21 -305 18 -82 73 -266 97 -324 7 -16 3 -15 -31 6 -94 60 -137 39
-103 -49 16 -41 12 -185 -7 -249 l-16 -55 -28 43 c-43 65 -56 78 -73 78 -9 0
-21 -8 -27 -17 -16 -28 -10 147 12 332 22 187 20 281 -10 345 -21 46 -60 89
-98 109 -21 10 -19 14 45 78 72 73 100 124 149 269 35 99 99 408 104 497 1 31
6 53 9 49 4 -4 18 -37 33 -74z m-5424 -121 c44 -59 48 -72 25 -81 -8 -3 -47
-26 -85 -51 -89 -58 -123 -66 -155 -35 -38 36 -35 98 7 145 38 44 92 74 135
75 28 0 38 -8 73 -53z m9988 -269 c-19 -35 -37 -50 -98 -81 -41 -20 -96 -40
-122 -44 -44 -5 -48 -4 -57 18 -8 22 -5 26 33 43 60 27 250 104 259 105 5 1
-2 -18 -15 -41z m-10382 -22 c38 -16 88 -37 112 -48 47 -20 146 -48 174 -48
15 0 18 -9 18 -50 0 -56 30 -144 63 -186 23 -30 17 -28 -53 20 -82 56 -177 91
-240 87 -26 -2 -41 4 -56 21 -40 43 -74 107 -74 138 0 17 -7 47 -15 66 -8 20
-11 34 -7 32 5 -2 39 -16 78 -32z m4040 -419 c16 -9 54 -39 84 -68 51 -48 141
-99 175 -99 11 0 13 -13 9 -62 -14 -163 -102 -253 -257 -264 l-72 -6 31 30
c39 36 71 89 60 99 -4 4 -15 -2 -24 -13 -24 -30 -81 -60 -126 -68 -21 -4 -106
-4 -188 0 l-149 7 22 23 c12 13 20 27 16 30 -4 4 -32 2 -64 -5 -94 -18 -203
-14 -203 8 0 4 18 25 40 46 22 21 40 44 40 51 0 13 -82 -26 -111 -52 -35 -32
-59 -179 -74 -457 -8 -144 -21 -291 -29 -327 -8 -36 -28 -123 -45 -195 -17
-75 -31 -167 -33 -217 -2 -47 -6 -84 -10 -82 -4 3 -17 37 -29 76 -26 85 -23
194 11 333 59 250 84 488 69 661 -6 60 -12 134 -15 164 -2 30 -7 90 -10 133
-10 121 28 195 116 227 20 7 125 16 245 22 116 4 237 13 270 17 85 13 215 7
251 -12z m909 13 c39 -6 144 -14 235 -20 91 -5 188 -16 216 -24 116 -36 142
-126 108 -376 -33 -248 -22 -476 36 -730 45 -197 50 -230 52 -320 1 -77 -2
-90 -30 -145 l-31 -60 3 62 c3 41 0 61 -6 57 -7 -5 -7 -1 -1 10 11 19 -11 154
-50 311 -36 142 -45 220 -57 470 -10 205 -28 332 -53 380 -11 21 -47 54 -60
55 -5 0 -22 9 -39 21 -47 34 -44 15 6 -39 25 -27 46 -52 46 -55 0 -3 -21 -10
-47 -16 -36 -7 -67 -6 -121 4 -40 8 -77 17 -82 20 -20 12 -21 -18 -1 -39 l22
-23 -139 -7 c-76 -4 -159 -4 -183 0 -52 8 -110 36 -139 66 -11 12 -23 18 -27
14 -10 -9 23 -63 61 -98 l31 -30 -70 7 c-158 13 -253 108 -263 263 -4 52 -2
62 12 62 37 0 153 68 210 122 32 31 71 59 85 61 52 8 208 6 276 -3z m405 -552
c1 -119 9 -311 19 -448 5 -63 4 -104 -4 -122 -10 -24 -12 -19 -23 60 -18 127
-67 272 -92 272 -13 0 -13 3 11 -71 11 -35 26 -116 32 -179 9 -100 7 -136 -11
-280 -12 -91 -25 -205 -28 -254 l-7 -88 -22 36 c-12 20 -25 63 -28 94 -4 31
-20 104 -36 162 -16 58 -34 124 -41 148 -11 45 -30 57 -30 20 0 -13 12 -77 25
-143 30 -143 30 -203 4 -355 -27 -154 -39 -277 -32 -321 3 -22 1 -39 -6 -43
-6 -4 -11 -27 -11 -52 0 -37 -3 -44 -20 -44 -13 0 -20 7 -20 20 0 11 -13 60
-28 108 -16 48 -37 126 -47 175 -10 48 -22 87 -26 87 -16 0 -22 -53 -13 -129
12 -110 9 -204 -15 -391 -11 -91 -24 -205 -27 -254 -7 -88 -7 -89 -25 -67 -12
14 -27 21 -41 19 -21 -3 -24 -9 -30 -93 -4 -49 -10 -188 -14 -309 l-6 -218
-21 20 c-14 14 -23 41 -28 82 -8 68 -11 75 -33 67 -25 -10 -31 -143 -12 -307
17 -156 20 -330 7 -395 -8 -36 -9 -33 -10 32 -3 192 -42 452 -98 663 -62 227
-65 251 -83 540 -9 148 -20 224 -35 238 -4 4 -5 -16 -1 -43 3 -28 6 -118 7
-200 1 -173 21 -313 74 -521 66 -257 95 -461 102 -715 6 -196 6 -196 -21 -254
-62 -136 -188 -216 -335 -214 -53 1 -54 1 -29 13 77 34 145 148 158 265 4 36
13 87 20 114 27 105 -4 457 -40 457 -13 0 -13 1 5 -67 10 -39 15 -104 14 -203
l0 -145 -29 98 c-29 101 -59 188 -105 312 -15 39 -43 114 -62 168 -31 85 -39
98 -57 95 -11 -2 -25 -13 -32 -25 -10 -21 -13 -18 -37 42 -35 86 -59 244 -56
377 2 59 0 110 -3 114 -12 11 -46 -7 -53 -29 -4 -14 -12 27 -20 111 -22 221
-75 476 -104 505 -6 6 -11 34 -11 63 0 60 -7 84 -25 84 -7 0 -18 -32 -28 -82
-9 -46 -23 -103 -31 -128 -13 -42 -14 -43 -15 -14 -1 40 -42 181 -86 299 -21
59 -40 139 -54 230 -12 77 -28 183 -36 235 -9 52 -19 119 -22 148 -4 32 -11
52 -18 52 -10 0 -14 -35 -17 -132 -4 -105 -9 -142 -24 -177 l-20 -45 -17 100
c-9 55 -40 174 -68 264 l-52 165 2 220 c1 121 4 233 7 248 5 26 8 28 37 20 18
-4 50 -7 72 -7 37 1 41 -2 40 -25 l0 -26 120 3 c66 2 126 -1 134 -6 11 -8 11
-23 1 -94 -26 -176 -3 -246 102 -304 47 -25 63 -29 133 -28 62 0 89 5 121 22
56 29 103 78 126 130 17 37 23 43 46 40 l27 -3 -3 -120 c-5 -212 -22 -393 -53
-589 -36 -229 -48 -459 -29 -589 6 -48 16 -87 20 -87 4 0 6 91 3 203 -5 187
-4 213 21 347 14 80 32 197 41 260 13 107 35 429 35 527 l0 43 60 0 c55 0 61
-2 74 -27 22 -42 75 -88 136 -120 48 -24 66 -28 142 -28 80 0 89 2 129 30 26
19 55 53 75 90 29 51 34 70 34 127 0 40 -7 85 -17 109 -25 63 -8 72 132 67
l110 -3 0 25 c0 24 3 26 51 26 28 1 59 6 70 12 10 6 22 12 27 12 4 0 7 -46 7
-102z m-1383 -111 c86 -49 176 -87 206 -87 22 0 22 -5 -8 -56 -63 -108 -269
-130 -355 -39 -28 30 -36 97 -25 209 l7 75 46 -28 c26 -15 84 -48 129 -74z
m950 -3 c4 -69 2 -85 -19 -124 -13 -25 -42 -59 -66 -77 -38 -29 -51 -33 -104
-33 -51 0 -71 6 -122 34 -71 40 -138 106 -108 106 30 0 173 46 219 70 23 12
73 43 110 70 37 26 72 44 76 40 5 -4 11 -43 14 -86z m-1583 -564 c19 -79 33
-147 30 -152 -3 -4 -15 -8 -28 -8 -12 0 -45 -11 -71 -25 -27 -13 -50 -23 -52
-21 -2 2 15 75 37 162 22 87 40 168 40 178 0 38 10 7 44 -134z m1784 -1755
c57 -14 121 -25 143 -25 l39 0 0 -42 c0 -55 33 -300 60 -448 13 -68 23 -170
25 -250 1 -74 3 -143 4 -152 0 -10 35 -55 77 -100 43 -46 88 -107 101 -136 30
-65 42 -132 23 -132 -8 0 -21 -6 -29 -14 -31 -27 -152 -86 -163 -80 -6 4 -8 3
-5 -3 8 -12 -160 -96 -175 -87 -6 4 -8 3 -5 -3 4 -6 0 -14 -9 -17 -12 -5 -15
-2 -10 9 17 46 36 140 42 213 6 68 4 82 -8 82 -10 0 -17 -24 -26 -86 -13 -85
-50 -185 -91 -242 -22 -31 -141 -79 -163 -66 -7 4 -9 3 -5 -2 11 -11 -83 -30
-231 -45 -109 -12 -140 -11 -280 6 -86 10 -182 20 -212 21 -30 2 -57 4 -60 5
-3 1 -9 1 -14 0 -5 -1 -16 5 -25 12 -9 8 -47 22 -86 32 -140 34 -207 64 -252
111 -23 24 -47 58 -55 74 -26 59 -39 26 -14 -35 8 -19 13 -35 10 -35 -2 0 -35
19 -72 42 -37 22 -85 51 -107 64 -22 13 -64 48 -94 79 -30 30 -58 55 -63 55
-4 0 -8 6 -8 13 0 7 -15 33 -32 57 -18 24 -28 41 -21 37 6 -4 29 14 54 44 24
27 59 59 78 70 l34 20 -6 147 c-6 165 6 390 28 494 8 38 15 93 15 123 l0 53
64 -5 c82 -7 142 8 274 68 109 50 121 50 122 4 0 -35 67 -174 105 -220 20 -25
44 -45 54 -45 12 0 22 -15 33 -47 9 -27 37 -107 62 -180 110 -320 94 -535 -43
-573 -48 -13 -119 21 -140 68 -8 18 -22 32 -32 32 -45 0 -27 -125 27 -188 87
-102 309 -112 469 -22 64 37 95 70 139 150 81 150 117 440 82 673 -20 133 -20
133 -2 117 8 -6 25 -10 38 -8 34 5 50 92 43 231 l-5 107 97 0 c70 0 127 -7
201 -25z m-3623 -681 c223 -34 473 -116 835 -274 106 -47 206 -100 262 -141
20 -14 51 -32 68 -39 l31 -13 -25 -26 c-14 -14 -41 -61 -61 -103 -29 -64 -35
-88 -35 -145 0 -37 4 -83 9 -101 7 -24 7 -31 -2 -26 -7 4 -2 -3 11 -15 12 -12
22 -24 22 -27 0 -5 -8 -1 -49 25 -13 8 -33 17 -45 18 -12 2 -33 5 -48 7 -14 2
-63 36 -109 76 -75 64 -178 137 -281 199 -21 13 -38 29 -38 36 0 26 -98 121
-153 148 -65 31 -164 57 -224 57 -63 0 -52 -16 20 -27 76 -13 185 -64 223
-105 24 -26 26 -30 9 -25 -11 3 -61 16 -112 30 -116 32 -237 42 -328 27 -92
-15 -102 -27 -29 -35 164 -17 339 -61 455 -114 129 -58 335 -193 422 -275 l28
-26 -27 -33 c-60 -71 -78 -153 -50 -221 14 -32 13 -35 -7 -40 -30 -7 -95 -72
-118 -118 -14 -28 -20 -59 -20 -115 -1 -86 13 -114 73 -148 l36 -20 -25 -19
c-53 -39 -68 -137 -34 -212 10 -22 38 -57 62 -79 24 -21 37 -34 29 -30 -8 5
-12 4 -7 0 8 -10 17 -12 107 -21 56 -5 76 -2 145 21 153 53 147 54 345 -30
210 -88 217 -90 380 -90 94 0 186 7 262 19 108 18 119 18 160 3 23 -9 61 -20
83 -26 22 -6 89 -40 150 -76 217 -129 308 -127 442 12 65 69 73 74 93 63 15
-8 43 -10 81 -6 59 7 125 -3 289 -44 116 -28 287 -58 367 -64 70 -5 73 -4 133
35 79 51 132 62 248 54 77 -6 92 -10 92 -24 0 -56 110 -151 175 -151 36 0 95
58 95 94 0 31 -21 85 -41 106 -8 8 -29 34 -48 58 -27 35 -31 45 -21 57 7 8 18
15 25 15 27 0 75 -53 106 -115 26 -54 31 -73 27 -115 -6 -63 -41 -114 -95
-141 -37 -18 -57 -20 -158 -17 -63 2 -115 0 -115 -4 0 -4 -17 -10 -37 -13 -47
-8 -68 -18 -68 -35 0 -10 18 -14 66 -15 36 -1 72 -6 80 -11 29 -18 115 -43
150 -44 l35 0 -4 -58 c-4 -56 -3 -60 28 -85 37 -31 61 -34 100 -10 26 15 28
21 29 76 0 64 6 80 22 57 15 -22 5 -94 -17 -123 -26 -36 -86 -48 -139 -29 -78
28 -111 32 -207 25 -155 -10 -121 -39 68 -58 85 -9 95 -17 62 -52 -34 -36 -48
-72 -37 -100 l8 -21 -59 24 c-82 33 -170 32 -170 -2 0 -8 10 -14 26 -14 l26 0
-26 -31 c-37 -43 -35 -91 3 -118 16 -12 42 -21 58 -22 28 -1 28 -1 3 -8 -30
-9 -67 3 -175 56 -44 22 -95 45 -112 53 -39 15 -68 7 -59 -17 6 -14 -3 -15
-87 -10 -92 6 -180 33 -327 99 -125 57 -147 66 -167 73 -13 3 -23 11 -23 16 0
6 -5 7 -10 4 -6 -4 -36 2 -68 13 -86 30 -95 30 -97 5 -1 -12 1 -20 5 -18 4 2
20 0 36 -5 25 -7 20 -8 -29 -9 -42 -1 -56 2 -51 11 5 7 3 8 -6 3 -17 -11 -115
-6 -149 6 -70 27 -109 101 -72 138 21 21 28 56 13 65 -7 4 -50 -13 -115 -45
-26 -14 -77 12 -115 57 -26 31 -30 40 -18 42 32 7 14 32 -41 60 -69 35 -153
56 -328 81 -71 11 -206 36 -300 56 -167 35 -286 58 -395 75 -50 8 -125 25
-300 66 -158 38 -492 143 -485 153 2 3 -7 7 -19 7 -12 1 -42 11 -66 22 -25 11
-74 32 -110 47 -36 15 -98 43 -138 61 -41 19 -78 34 -83 34 -6 0 -8 4 -5 9 4
5 -2 8 -11 6 -10 -1 -22 1 -28 5 -5 5 -37 23 -70 40 -33 18 -89 48 -125 68
-36 19 -77 43 -92 53 -14 11 -29 19 -32 19 -14 0 -236 151 -236 160 0 6 -3 9
-8 7 -4 -3 -21 6 -37 20 -17 13 -52 41 -80 62 -54 41 -214 201 -242 241 -9 14
-19 27 -23 30 -16 14 -70 89 -86 121 -11 20 -34 64 -51 97 l-33 61 55 -25 c64
-28 75 -29 75 -11 0 15 -27 40 -113 106 -32 24 -69 57 -82 73 -14 16 -25 27
-25 23 0 -4 -20 17 -45 46 -57 66 -87 128 -93 190 -4 41 1 59 32 121 39 76 97
145 154 180 25 15 59 22 155 28 67 4 160 15 207 23 328 58 426 63 635 31z
m6115 -211 l33 -6 -53 -26 c-106 -52 -68 -72 62 -32 51 16 130 34 175 41 71
12 89 11 149 -3 191 -48 295 -206 263 -404 -6 -37 -12 -80 -14 -95 -9 -81 -75
-240 -144 -348 -67 -106 -286 -344 -307 -336 -7 3 -11 0 -9 -7 2 -7 -25 -34
-61 -62 -36 -27 -75 -58 -87 -67 -151 -119 -406 -270 -487 -291 -330 -82 -670
-106 -855 -58 -151 39 -234 95 -276 186 -28 61 -25 72 24 80 23 4 123 27 222
52 99 24 234 55 300 69 404 81 611 138 790 217 52 22 83 30 120 28 79 -3 255
53 255 81 0 5 4 7 8 4 5 -3 9 1 9 9 0 19 -20 19 -55 1 -36 -19 -156 -33 -127
-15 90 57 265 222 265 251 0 20 -28 36 -39 22 -10 -15 -131 -106 -186 -141
-147 -93 -457 -217 -680 -272 -82 -20 -269 -65 -340 -81 -22 -5 -121 -27 -220
-50 -447 -102 -525 -119 -602 -135 -45 -9 -88 -13 -94 -9 -7 4 -9 3 -6 -3 5
-7 -16 -14 -56 -18 -34 -4 -66 -10 -71 -13 -6 -3 -19 -6 -30 -7 -38 -3 -269
-37 -376 -56 -181 -31 -293 -61 -393 -104 -30 -12 -42 -13 -53 -4 -16 13 -44
-3 -44 -25 0 -7 -8 -21 -17 -32 -10 -10 -31 -39 -48 -63 -55 -81 -106 -78
-168 10 -63 89 -88 73 -47 -30 l19 -49 -42 -39 c-78 -71 -113 -87 -192 -87
-59 0 -81 5 -130 29 -119 59 -147 77 -134 85 25 16 -1 38 -65 54 -75 18 -225
21 -331 5 -153 -23 -354 -14 -445 18 -8 3 -22 7 -30 8 -22 3 -108 34 -155 55
-22 10 -81 26 -131 35 -89 16 -92 16 -180 -6 -49 -12 -117 -23 -151 -23 -52
-1 -65 3 -89 24 -31 29 -63 94 -64 131 0 29 17 49 42 49 21 0 23 -18 6 -91
-12 -50 -11 -52 15 -75 15 -13 33 -22 40 -19 6 2 25 6 40 10 35 7 70 77 61
121 -5 28 -4 30 48 42 29 6 67 12 83 12 72 0 104 32 44 44 -45 9 -99 36 -137
68 -32 27 -60 33 -134 28 -52 -3 -107 19 -123 50 -54 105 69 279 155 219 12
-8 8 -9 -15 -7 -30 3 -30 2 -64 -100 -32 -99 -33 -103 -16 -122 33 -36 78 -26
135 28 44 42 50 53 50 89 0 26 -8 50 -22 68 -20 26 -20 27 -2 22 10 -3 42 -8
69 -12 28 -4 88 -24 136 -45 47 -21 93 -40 104 -42 31 -5 27 19 -7 40 -18 11
-43 30 -55 41 -36 34 -95 60 -159 72 -32 5 -82 19 -110 31 -44 18 -52 25 -61
60 -25 94 3 159 76 177 66 17 75 12 43 -23 -56 -60 -89 -137 -77 -177 7 -22
54 -49 85 -49 42 0 78 29 105 85 20 39 26 64 21 85 -3 17 -4 30 -2 30 2 0 59
-30 128 -67 208 -114 227 -119 188 -55 -11 18 -15 32 -10 32 27 0 4 29 -47 60
-72 42 -154 123 -179 175 -12 26 -18 61 -18 104 0 171 149 321 319 321 53 0
135 -24 135 -40 0 -10 -41 -26 -120 -45 -92 -24 -115 -38 -134 -86 -41 -101
47 -229 158 -229 25 0 47 4 50 9 7 11 171 -152 201 -199 13 -20 31 -62 41 -93
14 -46 22 -57 39 -57 11 0 25 -4 30 -9 13 -13 142 -76 208 -102 28 -11 149
-47 267 -79 118 -32 235 -65 260 -73 25 -8 106 -34 180 -57 186 -57 186 -56
122 -65 -48 -7 -75 -26 -59 -41 10 -11 241 19 331 42 50 13 100 26 111 28 89
16 278 92 460 185 213 110 431 249 765 489 58 42 155 109 215 149 119 78 117
76 158 122 16 17 39 31 51 31 12 0 47 12 77 26 304 144 391 180 509 209 30 7
93 25 140 38 223 66 356 87 440 70z m-4320 -224 c111 -225 342 -391 685 -495
78 -24 235 -61 265 -62 8 0 53 -8 100 -18 61 -12 137 -18 265 -18 192 -1 267
9 430 59 79 24 480 219 585 285 67 41 130 112 130 146 0 28 -11 30 -44 9 -22
-15 -24 -14 -28 9 -4 21 -1 25 33 30 20 3 51 3 68 0 36 -7 36 1 -11 -131 -27
-74 -37 -89 -96 -144 -66 -60 -149 -122 -224 -166 -106 -61 -353 -151 -458
-167 -62 -9 -87 -26 -38 -26 173 -1 563 156 704 283 l50 45 0 -71 c0 -40 2
-78 5 -86 7 -25 -130 -108 -273 -165 -96 -38 -313 -94 -458 -118 -160 -26
-401 -28 -585 -4 -235 31 -516 94 -730 164 -240 80 -405 175 -475 275 -16 23
-36 49 -43 57 -16 18 -7 62 21 98 l17 22 33 -41 c35 -46 110 -101 125 -92 5 3
-3 13 -17 23 -69 45 -121 133 -128 218 -6 57 -4 65 23 102 16 22 31 40 34 40
2 0 18 -28 35 -61z m-171 -142 c-11 -29 -28 -63 -37 -77 -9 -14 -19 -45 -22
-70 l-5 -45 -42 1 c-88 2 -143 110 -81 161 8 7 51 24 96 38 46 14 86 33 89 41
3 7 9 11 14 9 4 -3 -1 -29 -12 -58z m356 -477 c68 -33 94 -55 150 -123 36 -45
37 -48 14 -42 -61 15 -164 55 -162 62 1 4 -9 9 -22 9 -27 2 -105 61 -105 80 0
7 -9 33 -20 58 l-19 46 52 -31 c29 -17 79 -43 112 -59z m237 -94 c162 -54 492
-128 703 -158 50 -7 171 -12 270 -12 148 0 208 5 339 27 87 15 160 26 162 24
2 -2 -9 -15 -24 -29 -23 -22 -312 -139 -402 -163 -14 -4 -39 -13 -56 -21 -68
-30 -155 -53 -159 -41 -2 7 -11 38 -20 70 -23 82 -37 71 -15 -13 10 -40 14
-70 8 -70 -5 0 -28 15 -51 34 -95 77 -269 138 -688 241 -59 15 -67 20 -77 49
-7 18 -21 42 -32 54 -24 26 -16 27 42 8z m1259 -728 c0 -35 8 -93 18 -130 9
-38 15 -68 12 -68 -3 1 -40 9 -81 19 l-75 18 -14 71 c-8 40 -18 72 -23 72 -4
0 -8 -30 -8 -66 l0 -66 -27 5 c-16 4 -57 12 -93 18 -76 14 -76 15 -63 31 6 7
14 27 17 45 8 37 20 43 176 82 166 43 160 44 161 -31z m840 -193 c40 -78 42
-86 27 -101 -27 -27 -81 -11 -112 34 -14 21 -26 46 -26 56 0 14 56 96 66 96 1
0 22 -38 45 -85z"/>
<path d="M5825 10194 c-103 -30 -121 -35 -156 -44 -20 -5 -117 -8 -215 -7
l-179 2 -95 -38 c-52 -20 -104 -44 -114 -52 -38 -29 -6 -27 61 2 38 17 107 38
154 47 79 16 94 16 182 2 137 -23 169 -20 283 19 74 26 133 38 216 46 68 7
119 17 128 25 12 12 -3 14 -100 13 -70 0 -135 -6 -165 -15z"/>
<path d="M5895 10006 c-49 -19 -121 -46 -160 -60 -94 -35 -149 -33 -299 9
-141 40 -180 42 -269 18 -78 -22 -387 -177 -387 -195 0 -19 41 -4 154 56 221
116 305 129 484 72 59 -19 123 -38 143 -41 48 -9 128 12 286 76 182 72 285 77
458 20 42 -14 57 -16 65 -6 11 13 -21 50 -33 38 -4 -3 -7 -1 -7 6 0 7 -4 10
-8 7 -4 -2 -39 4 -77 15 -47 13 -100 19 -165 19 -82 -1 -107 -5 -185 -34z"/>
<path d="M6259 9796 c-2 -2 -29 -7 -59 -11 -30 -3 -82 -11 -115 -17 -93 -16
-258 -16 -279 1 -27 23 -41 -2 -41 -74 0 -57 3 -67 29 -94 16 -16 42 -36 58
-44 l30 -14 -30 -11 c-59 -20 -119 -140 -78 -155 9 -4 15 -3 14 1 -5 17 14 52
25 46 7 -4 9 -4 5 1 -12 13 10 42 47 59 19 9 35 24 35 33 0 12 7 14 33 9 128
-24 202 -27 354 -12 86 9 193 16 239 16 l81 0 67 -62 c37 -34 78 -81 92 -105
28 -49 64 -153 65 -192 0 -14 8 -53 17 -86 14 -47 21 -60 37 -60 29 0 62 57
81 142 40 179 -23 375 -163 510 -96 93 -193 122 -404 123 -75 0 -138 -2 -140
-4z m264 -57 c237 -36 403 -244 395 -495 l-3 -89 -23 75 c-48 151 -133 271
-241 339 -49 31 -155 66 -171 56 -17 -11 -11 -23 15 -32 17 -5 -14 -8 -87 -8
-62 -1 -180 -3 -263 -6 -125 -4 -160 -2 -210 13 -80 24 -104 37 -121 70 -23
44 -19 48 49 41 36 -3 109 1 177 11 242 35 375 42 483 25z"/>
<path d="M5991 9383 c-5 -21 -12 -81 -15 -133 -3 -52 -8 -105 -12 -117 -7 -25
5 -30 24 -11 16 16 61 -8 55 -31 -5 -21 81 -73 159 -95 102 -29 236 -16 305
29 40 27 13 35 -47 15 -90 -31 -209 -22 -325 24 l-40 16 46 -5 c62 -8 249 11
305 30 88 30 145 71 162 115 9 24 8 26 -21 28 -34 3 -45 13 -54 55 -3 15 -11
27 -19 27 -10 0 -10 -8 -3 -32 14 -49 12 -55 -25 -77 -57 -36 -126 -52 -242
-58 -89 -5 -121 -2 -162 11 l-50 17 -7 74 c-4 40 -5 92 -3 114 5 53 -17 55
-31 4z"/>
<path d="M5300 9395 c0 -2 6 -24 14 -47 8 -24 19 -67 24 -95 8 -48 7 -53 -9
-53 -10 0 -24 -6 -31 -14 -14 -13 -155 -42 -164 -33 -3 2 13 7 36 11 80 13 37
25 -102 28 -200 5 -201 -3 -8 -42 42 -9 40 -9 -18 -5 -35 3 -87 11 -115 19
-29 8 -64 17 -79 20 -26 6 -28 10 -28 51 0 62 -27 61 -32 0 -2 -15 -8 -30 -15
-32 -21 -8 -15 -37 16 -70 67 -73 247 -91 471 -47 14 3 -9 -11 -50 -31 -41
-20 -96 -41 -122 -46 -48 -11 -61 -25 -34 -35 25 -10 118 15 176 47 30 16 72
37 92 47 35 16 52 42 27 42 -5 0 -7 5 -4 10 4 7 12 7 25 0 10 -5 26 -10 34
-10 21 0 21 39 1 46 -9 4 -15 20 -15 43 0 57 -58 201 -80 201 -6 0 -10 -2 -10
-5z"/>
<path d="M5358 9042 c-55 -93 -183 -192 -297 -231 -48 -17 -84 -22 -148 -20
-46 1 -86 -1 -90 -4 -13 -14 56 -30 139 -33 l88 -4 94 51 c122 65 212 156 249
252 11 28 -17 20 -35 -11z"/>
<path d="M6036 8991 c-11 -17 76 -93 138 -122 80 -37 162 -52 256 -47 87 6
160 32 142 50 -9 9 -22 9 -57 0 -97 -26 -290 -6 -336 34 -9 8 -18 12 -20 9 -3
-2 -30 16 -61 40 -32 25 -59 41 -62 36z"/>
<path d="M10730 8914 c0 -3 12 -25 26 -49 38 -66 124 -140 174 -151 42 -9 43
-9 59 -75 l17 -67 -81 6 c-59 3 -97 0 -141 -12 -97 -28 -289 -126 -246 -126 4
0 55 18 113 39 197 74 309 74 424 1 66 -43 109 -57 119 -41 4 6 -3 19 -16 30
-62 54 -77 69 -106 112 -38 56 -73 159 -70 202 1 18 -2 38 -6 45 -12 20 -26 3
-26 -34 0 -40 -13 -43 -68 -15 -36 19 -116 93 -134 125 -8 15 -38 23 -38 10z"/>
<path d="M6487 5633 c-14 -14 -6 -23 21 -23 16 0 37 -6 48 -14 51 -38 -80 -56
-135 -19 l-26 18 28 3 c35 4 30 26 -7 30 -52 6 -72 -33 -37 -75 26 -31 64 -44
132 -46 44 -1 63 3 78 17 29 26 28 80 -1 100 -22 16 -89 22 -101 9z"/>
<path d="M3945 9234 c-42 -22 -75 -54 -75 -75 0 -10 -8 -31 -17 -48 -14 -24
-15 -33 -6 -42 10 -10 14 -8 19 7 22 62 35 84 57 99 28 18 90 22 128 9 21 -7
19 -9 -21 -16 -25 -5 -53 -9 -62 -10 -9 -1 -14 -6 -12 -10 3 -4 1 -8 -4 -8 -5
0 -17 -15 -27 -34 -11 -19 -22 -33 -26 -31 -3 3 -5 -37 -4 -88 1 -77 6 -101
28 -148 27 -56 100 -149 118 -149 18 0 8 26 -26 64 -74 85 -101 233 -56 312
18 33 31 43 67 52 102 27 144 6 95 -47 -52 -56 -54 -143 -7 -243 18 -39 36
-61 56 -69 23 -11 30 -21 35 -55 8 -55 58 -110 110 -120 51 -9 120 15 120 42
0 12 -5 17 -15 14 -8 -3 -38 -5 -66 -5 -64 0 -94 23 -94 72 0 55 52 92 80 58
14 -17 46 -20 55 -5 11 17 -15 92 -73 210 -46 95 -68 127 -125 183 -38 38 -84
75 -102 83 -45 18 -113 18 -150 -2z"/>
<path d="M7422 9075 c-123 -54 -205 -205 -219 -407 -4 -64 -2 -92 7 -103 21
-25 45 -17 71 22 13 21 32 39 42 41 22 5 67 -35 67 -58 0 -29 -21 -80 -31 -74
-5 3 -7 -1 -4 -8 2 -7 -10 -24 -26 -37 -27 -21 -33 -22 -54 -11 -53 28 -68
-20 -18 -59 37 -30 101 -7 145 51 29 39 61 98 52 98 -3 0 6 21 21 48 17 29 29
69 32 104 5 49 2 65 -22 112 -30 60 -68 86 -124 86 -38 0 -38 6 -3 48 56 66
151 29 207 -82 24 -48 27 -62 22 -128 -2 -40 -10 -86 -16 -103 -7 -16 -13 -32
-13 -35 0 -3 -4 -15 -9 -27 -20 -54 36 6 63 67 14 31 21 68 22 120 1 66 -3 84
-31 141 -31 62 -95 129 -124 129 -10 0 -10 3 -1 12 31 31 145 -47 172 -118 15
-38 34 -30 27 11 -22 134 -141 209 -255 160z"/>
<path d="M1536 8240 c-26 -111 -76 -195 -136 -223 -38 -19 -60 -22 -137 -19
-86 2 -97 0 -153 -28 -61 -31 -133 -96 -127 -114 7 -20 24 -15 58 15 80 73
169 92 307 66 145 -28 292 -107 402 -217 41 -41 65 -59 72 -52 13 13 -30 88
-77 133 -18 18 -31 37 -28 43 3 5 1 6 -4 3 -6 -4 -21 1 -34 11 -13 10 -43 29
-66 42 -23 13 -41 26 -39 29 2 3 -6 7 -17 8 -12 0 -39 9 -60 18 l-39 16 26 32
c51 62 86 169 86 262 0 71 -15 60 -34 -25z"/>
<path d="M5073 5590 c-34 -14 -28 -30 11 -30 44 0 63 -21 39 -45 -25 -26 -100
-55 -139 -55 -30 0 -34 3 -34 25 0 17 10 32 35 47 19 13 35 26 35 31 0 13 -45
7 -70 -10 -33 -22 -40 -33 -40 -65 0 -40 10 -58 32 -58 18 0 19 -2 7 -17 -12
-16 -12 -17 1 -7 8 6 37 14 64 18 58 7 139 49 156 81 16 31 5 62 -30 80 -33
17 -36 17 -67 5z"/>
</g>
</svg>
